<?xml version="1.0" standalone="no"?>
<!DOCTYPE svg PUBLIC "-//W3C//DTD SVG 20010904//EN"
 "http://www.w3.org/TR/2001/REC-SVG-20010904/DTD/svg10.dtd">
<svg version="1.0" xmlns="http://www.w3.org/2000/svg"
 width="1525.000000pt" height="812.000000pt" viewBox="0 0 1525.000000 812.000000"
 preserveAspectRatio="xMidYMid meet">

<g transform="translate(0.000000,812.000000) scale(0.100000,-0.100000)"
fill="#000000" stroke="none">
<path d="M13368 8100 c-77 -13 -171 -66 -233 -131 -127 -133 -159 -316 -85
-478 20 -42 29 -75 24 -80 -74 -66 -894 -788 -906 -799 -16 -14 -20 -12 -40
14 -97 124 -219 179 -383 172 -79 -3 -102 -8 -157 -36 -36 -17 -85 -49 -110
-71 l-44 -40 -435 385 -434 384 -7 72 c-17 169 -134 313 -299 368 -52 18 -81
21 -155 18 -77 -3 -101 -9 -155 -35 -85 -42 -129 -81 -178 -153 -49 -74 -72
-151 -76 -254 -2 -43 -7 -82 -12 -86 -4 -4 -236 -208 -516 -454 l-507 -447
-30 21 c-85 61 -270 88 -369 55 -167 -55 -294 -245 -295 -440 0 -70 4 -90 32
-148 80 -173 293 -287 477 -257 148 24 264 128 330 295 29 72 27 210 -3 285
l-22 55 32 30 c18 17 242 214 496 439 l464 408 41 -40 c99 -95 207 -136 343
-130 77 3 101 9 155 35 58 29 127 88 177 152 l18 23 423 -373 423 -374 -6 -62
c-11 -124 27 -247 100 -331 127 -145 312 -185 510 -111 138 52 244 208 244
359 0 69 -44 25 530 530 239 211 447 394 462 408 l26 24 67 -27 c123 -49 266
-42 370 19 110 65 196 192 217 322 37 223 -132 446 -368 484 -66 11 -69 11
-136 0z m148 -185 c60 -17 127 -73 154 -126 11 -21 23 -65 26 -97 15 -142
-109 -272 -259 -272 -178 0 -302 205 -222 367 29 57 75 97 144 124 57 22 93
23 157 4z m-3270 -240 c79 -46 133 -134 134 -216 1 -231 -268 -349 -429 -187
-80 79 -101 211 -48 300 30 52 88 97 157 122 58 21 131 13 186 -19z m1604
-1061 c72 -21 151 -99 168 -166 19 -75 15 -119 -18 -185 -48 -95 -124 -143
-227 -143 -223 1 -333 265 -179 428 70 75 153 97 256 66z m-3367 -277 c50 -14
120 -76 146 -130 46 -96 12 -227 -76 -294 -49 -36 -136 -58 -195 -49 -173 28
-271 232 -183 381 55 95 174 131 308 92z"/>
<path d="M12725 5470 c-102 -15 -182 -69 -228 -155 -18 -33 -22 -56 -22 -140
0 -107 12 -145 68 -211 58 -69 192 -106 308 -86 145 25 225 101 250 239 41
221 -138 389 -376 353z"/>
<path d="M4592 4310 c2 -611 2 -1107 0 -1103 -1 5 -168 467 -371 1028 l-368
1020 -382 0 -383 0 -404 -1120 c-222 -616 -415 -1150 -429 -1187 l-25 -68 328
0 328 0 100 308 100 307 375 3 375 2 100 -307 100 -308 336 -3 337 -2 -14 41
c-22 61 -19 65 22 29 46 -41 123 -75 198 -89 65 -12 274 -14 413 -5 l92 7 2
171 3 171 27 -51 c117 -222 381 -344 683 -314 122 11 175 25 261 64 l72 34 84
128 83 129 3 -158 3 -157 309 0 310 0 0 920 0 920 -310 0 -310 0 0 -536 c0
-342 -4 -561 -11 -607 -21 -138 -93 -253 -187 -298 -56 -27 -183 -32 -246 -10
-55 19 -120 82 -145 140 -38 89 -43 167 -48 749 l-5 562 -305 0 -304 0 3 -721
3 -721 -56 5 c-31 3 -65 11 -77 18 -48 30 -47 -2 -50 1092 l-3 1027 -310 0
-310 0 3 -1110z m-1014 34 l109 -359 -220 -3 c-121 -1 -221 -1 -223 1 -3 2
188 648 212 716 2 8 7 12 9 9 3 -2 54 -166 113 -364z"/>
<path d="M8362 4750 c-41 -11 -101 -33 -135 -50 -59 -29 -66 -36 -132 -141
-38 -61 -73 -113 -77 -115 -4 -3 -8 60 -8 140 l0 146 -310 0 -310 0 0 -925 0
-925 310 0 310 0 0 533 c0 565 6 654 49 767 43 113 120 171 230 171 117 1 184
-39 230 -135 51 -105 56 -172 56 -783 l0 -553 313 0 313 0 -1 568 c-1 604 2
640 50 749 50 112 113 155 231 154 89 0 150 -28 196 -89 73 -96 82 -197 83
-864 l0 -518 310 0 310 0 0 608 c0 631 -8 807 -40 902 -81 242 -298 380 -594
380 -139 0 -230 -19 -326 -67 -67 -34 -82 -48 -145 -128 -38 -50 -82 -105 -96
-123 l-26 -33 -39 66 c-78 134 -222 237 -379 270 -101 21 -282 19 -373 -5z"/>
<path d="M11503 4754 c-35 -7 -97 -27 -138 -45 -75 -31 -76 -32 -163 -148
l-87 -116 -3 143 -3 142 -309 0 -310 0 0 -925 0 -925 309 0 309 0 5 533 c3
433 7 545 20 602 35 159 96 260 184 308 43 23 65 28 122 28 138 1 209 -39 263
-148 l33 -68 3 -627 3 -628 310 0 310 0 -3 693 c-4 676 -4 694 -26 770 -62
223 -215 365 -444 411 -95 20 -298 20 -385 0z"/>
<path d="M12480 3805 l0 -925 310 0 310 0 0 925 0 925 -310 0 -310 0 0 -925z"/>
<path d="M12711 2279 c-85 -25 -168 -108 -201 -203 -28 -79 -27 -204 2 -293
50 -154 209 -237 368 -193 93 26 169 105 185 193 7 36 6 37 -22 37 -26 0 -30
-5 -41 -44 -14 -54 -62 -112 -111 -132 -20 -9 -63 -16 -97 -17 -108 -1 -188
64 -225 184 -31 98 -21 218 24 305 19 37 88 101 125 115 15 6 53 11 84 11 101
0 172 -50 204 -141 10 -30 17 -37 43 -39 l30 -3 -14 47 c-16 52 -48 103 -85
132 -58 46 -185 65 -269 41z"/>
<path d="M11190 1935 l0 -345 30 0 30 0 0 144 0 143 123 5 c154 7 213 33 254
112 22 43 20 136 -4 182 -41 80 -112 104 -308 104 l-125 0 0 -345z m327 272
c47 -25 66 -68 61 -139 -4 -49 -9 -64 -35 -90 -37 -36 -83 -47 -205 -48 l-88
0 0 151 0 151 118 -4 c84 -3 126 -9 149 -21z"/>
<path d="M11860 1935 l0 -345 220 0 220 0 0 25 0 25 -190 0 -190 0 0 135 0
135 175 0 175 0 0 25 0 25 -175 0 -175 0 0 135 0 135 185 0 185 0 0 25 0 25
-215 0 -215 0 0 -345z"/>
</g>
</svg>
