<svg id="visual" viewBox="0 0 900 100" width="900" height="100" xmlns="http://www.w3.org/2000/svg" xmlns:xlink="http://www.w3.org/1999/xlink" version="1.1"><rect x="0" y="0" width="900" height="100" fill="#3b3a3a"></rect><defs><linearGradient id="grad1_0" x1="88.9%" y1="0%" x2="100%" y2="100%"><stop offset="-130%" stop-color="#3b3a3a" stop-opacity="1"></stop><stop offset="230%" stop-color="#3b3a3a" stop-opacity="1"></stop></linearGradient></defs><defs><linearGradient id="grad2_0" x1="0%" y1="0%" x2="11.1%" y2="100%"><stop offset="-130%" stop-color="#3b3a3a" stop-opacity="1"></stop><stop offset="230%" stop-color="#3b3a3a" stop-opacity="1"></stop></linearGradient></defs><g transform="translate(900, 0)"><path d="M0 100C-17.1 96.8 -34.2 93.7 -49.5 85.7C-64.8 77.8 -78.5 65.1 -86.6 50C-94.7 34.9 -97.4 17.5 -100 0L0 0Z" fill="#F0C504"></path></g><g transform="translate(0, 100)"><path d="M0 -100C17.5 -97.4 34.9 -94.7 50 -86.6C65.1 -78.5 77.8 -64.8 85.7 -49.5C93.7 -34.2 96.8 -17.1 100 0L0 0Z" fill="#F0C504"></path></g></svg>